<?xml version="1.0" encoding="UTF-8" ?>
<!DOCTYPE svg PUBLIC "-//W3C//DTD SVG 1.1//EN" "http://www.w3.org/Graphics/SVG/1.1/DTD/svg11.dtd">
<svg width="900pt" height="655pt" viewBox="0 0 900 655" version="1.1" xmlns="http://www.w3.org/2000/svg">
<!-- lineart credit to 'chronically' on DeviantArt, used with permission -->
<g id="#585858ff">
<path fill="#585858" opacity="1.00" d=" M 246.15 115.38 C 248.93 114.52 250.32 111.78 252.08 109.70 C 248.80 118.25 240.19 122.88 231.72 124.89 C 237.23 126.01 242.96 124.90 247.45 121.47 C 245.08 123.71 242.16 125.18 239.39 126.85 C 250.52 128.85 261.67 131.79 273.08 130.93 C 276.48 130.69 279.56 129.10 282.59 127.67 C 279.90 130.06 276.75 132.29 273.01 132.40 C 261.85 133.13 250.94 130.25 240.15 127.85 C 236.53 126.92 232.57 128.14 229.16 126.38 C 224.51 126.00 220.00 127.37 215.41 127.73 C 225.72 123.30 238.45 124.29 247.08 116.14 C 238.34 118.91 229.00 116.50 220.28 119.24 C 216.21 120.49 212.55 122.70 209.09 125.12 C 210.98 122.74 213.23 120.59 216.14 119.54 C 217.81 118.78 219.51 118.07 221.25 117.46 C 229.44 115.74 238.11 118.22 246.15 115.38 Z" />
<path fill="#585858" opacity="1.00" d=" M 186.26 119.28 C 189.06 116.25 192.57 113.86 196.60 112.81 C 196.37 112.97 195.91 113.28 195.68 113.44 C 193.60 114.81 191.45 116.10 189.58 117.76 C 184.79 122.41 179.30 127.31 172.16 127.11 C 171.43 126.94 169.97 126.60 169.24 126.44 C 175.15 124.87 182.01 124.19 186.26 119.28 Z" />
<path fill="#585858" opacity="1.00" d=" M 122.46 115.46 C 125.77 114.81 128.41 117.99 131.77 117.80 C 139.12 118.31 143.43 125.07 145.81 131.31 C 150.52 131.53 155.40 132.59 160.03 131.23 C 163.53 129.92 166.18 127.13 168.62 124.40 C 169.30 127.87 165.48 129.46 163.29 131.31 C 158.11 134.58 151.73 133.03 146.11 132.09 C 146.72 134.96 147.14 137.86 147.25 140.80 C 158.84 140.76 170.39 142.23 181.98 142.40 C 189.10 142.42 196.07 143.92 202.92 145.68 C 202.06 144.59 201.19 143.50 200.33 142.41 C 197.89 142.29 195.44 142.12 193.01 141.85 C 195.54 141.46 198.11 141.36 200.67 141.43 C 204.78 145.12 207.18 150.34 211.67 153.66 C 219.16 154.37 226.00 149.08 233.49 151.21 C 229.51 151.42 225.53 151.83 221.68 152.92 C 225.01 156.85 229.90 160.06 235.26 159.47 C 238.69 158.98 242.37 159.79 245.57 158.17 C 240.07 157.53 234.50 156.91 229.33 154.79 C 236.78 156.68 244.52 156.59 252.06 157.96 C 255.25 158.54 258.20 160.21 259.94 163.00 C 257.38 161.69 254.97 159.84 252.06 159.43 C 248.93 159.31 245.81 159.81 242.70 160.13 C 252.79 165.21 263.24 169.90 271.97 177.20 C 285.62 188.97 300.12 199.73 315.07 209.78 C 322.34 214.23 329.59 218.90 337.78 221.47 C 340.19 222.35 342.47 223.52 344.72 224.76 C 336.64 223.45 328.96 220.31 322.02 216.01 C 302.83 205.66 286.14 191.48 269.20 177.92 C 260.34 170.94 250.11 166.02 239.83 161.55 C 236.48 160.63 232.82 161.77 229.54 160.41 C 225.90 159.28 223.04 156.64 220.88 153.59 C 217.12 154.28 212.99 155.20 209.38 153.44 C 207.03 152.28 205.94 149.58 203.69 148.36 C 195.76 145.55 187.33 144.39 178.95 144.29 C 168.05 143.90 157.29 142.05 146.45 141.11 C 145.02 144.39 144.83 148.12 142.90 151.17 C 141.87 145.32 146.58 139.99 144.71 134.14 C 143.09 128.96 140.96 122.62 135.35 120.63 C 133.94 120.05 132.51 119.57 131.09 119.07 C 131.79 124.08 131.19 129.13 131.50 134.16 C 132.68 138.79 135.96 142.83 135.69 147.84 C 134.90 151.08 135.52 154.45 134.90 157.71 C 133.90 161.20 130.73 163.37 128.06 165.55 L 128.60 162.68 C 128.17 163.57 127.75 164.46 127.34 165.36 C 124.89 166.27 122.42 167.12 119.92 167.92 C 122.89 165.63 126.34 163.77 128.55 160.65 C 130.20 158.34 129.66 155.36 129.86 152.72 C 125.92 156.98 119.85 156.73 114.81 158.67 C 111.23 160.19 109.77 164.00 108.37 167.33 C 108.40 163.84 107.98 160.00 110.05 156.94 C 111.86 153.77 115.12 151.74 118.63 150.92 C 114.93 153.62 110.83 156.16 109.02 160.63 C 113.87 155.88 120.88 156.13 126.75 153.66 C 129.95 151.70 127.06 147.82 126.50 145.11 C 128.08 148.36 129.79 151.61 130.71 155.12 C 131.55 157.89 130.08 160.54 129.31 163.12 C 131.39 160.78 133.82 158.21 133.83 154.87 C 134.34 150.72 132.25 146.99 130.32 143.51 C 131.83 145.67 133.40 147.81 135.31 149.65 C 136.12 142.96 129.42 138.66 129.60 132.08 C 125.48 131.05 121.28 132.23 118.13 135.02 C 114.32 138.14 110.28 140.95 105.80 143.02 C 111.18 143.92 116.50 142.51 121.46 140.56 C 114.55 145.76 105.29 149.77 102.79 158.86 C 101.15 163.12 102.63 167.56 104.74 171.35 C 101.43 169.48 99.87 165.63 100.48 161.96 C 100.92 154.33 106.77 148.56 112.87 144.72 C 105.82 145.28 98.95 142.41 94.23 137.18 C 97.03 138.87 99.68 141.09 102.98 141.66 C 111.55 140.97 116.31 131.92 124.77 131.06 C 124.53 127.49 124.66 123.82 123.49 120.39 C 123.04 118.77 122.15 117.18 122.46 115.46 M 124.09 116.87 C 126.75 121.28 125.39 126.39 125.22 131.19 C 126.35 131.37 128.61 131.73 129.75 131.91 C 129.85 127.48 130.75 122.74 128.62 118.62 C 127.11 118.05 125.59 117.46 124.09 116.87 Z" />
<path fill="#585858" opacity="1.00" d=" M 286.10 119.10 C 286.32 122.17 287.32 125.68 285.36 128.40 C 280.70 135.35 272.41 138.21 265.03 141.25 C 269.91 141.47 275.06 140.38 279.73 142.30 C 283.12 143.46 286.25 145.67 289.95 145.68 C 296.75 146.32 303.40 142.45 310.12 145.08 C 304.33 143.72 298.64 145.20 293.05 146.58 C 291.11 146.70 289.16 146.69 287.23 146.58 C 283.38 145.80 280.01 143.50 276.14 142.79 C 267.12 141.54 258.05 143.56 249.60 146.63 C 254.20 144.14 259.21 142.54 264.33 141.54 C 266.24 139.58 268.68 138.31 271.27 137.51 C 270.24 137.27 269.21 136.99 268.20 136.69 C 273.29 134.35 279.74 133.40 283.70 128.78 C 286.42 126.30 285.70 122.38 286.10 119.10 Z" />
<path fill="#585858" opacity="1.00" d=" M 266.35 149.96 C 269.70 149.25 273.21 148.85 276.54 149.88 C 280.92 151.26 285.63 150.77 289.98 152.27 C 293.65 153.36 296.87 155.48 300.25 157.19 C 298.86 155.27 297.37 153.43 295.88 151.59 L 296.56 151.55 C 301.20 155.32 303.64 160.86 306.50 165.94 C 305.65 160.41 303.49 154.67 298.67 151.41 L 300.20 151.33 C 304.40 154.53 306.73 159.62 307.33 164.79 C 305.42 168.62 307.11 173.80 303.44 176.81 C 309.33 181.38 311.07 189.33 316.90 193.94 C 320.28 196.76 324.93 196.02 329.00 196.30 C 320.04 199.63 308.87 199.10 301.40 192.62 C 294.58 187.31 291.31 178.57 283.85 173.97 C 280.18 171.40 275.49 172.33 271.30 171.96 C 275.47 171.70 280.09 170.75 283.81 173.21 C 292.40 177.74 295.96 187.68 303.99 192.90 C 308.22 195.85 313.42 196.81 318.48 197.06 C 316.17 195.18 313.76 193.32 312.05 190.84 C 308.74 186.19 306.82 180.36 302.06 176.88 C 299.48 174.86 296.14 174.38 293.01 173.88 C 296.28 173.58 299.34 174.80 302.35 175.88 C 302.61 175.76 303.13 175.52 303.39 175.40 C 305.25 173.48 304.42 170.36 304.30 167.93 C 303.70 164.94 302.69 160.68 299.11 160.19 C 292.01 158.44 285.64 154.75 279.12 151.57 C 275.19 149.45 270.67 149.44 266.35 149.96 M 281.58 151.01 C 286.79 155.36 293.65 157.10 299.88 159.57 C 295.15 154.53 288.32 151.90 281.58 151.01 Z" />
<path fill="#585858" opacity="1.00" d=" M 109.76 172.45 C 112.15 168.14 113.84 163.27 117.71 159.98 C 116.06 163.58 114.29 167.11 112.44 170.61 C 110.96 173.45 108.52 175.81 107.82 179.03 C 105.05 190.59 98.12 200.44 92.87 210.94 C 87.30 221.81 79.62 231.96 77.39 244.22 C 76.66 248.94 75.68 254.20 78.52 258.45 C 80.32 261.19 79.27 265.69 82.66 267.24 C 85.53 268.58 89.23 270.09 92.18 268.21 C 97.04 261.61 98.95 250.86 108.57 249.59 C 105.93 251.57 102.85 253.27 101.26 256.31 C 98.60 261.01 95.44 265.49 93.78 270.68 C 96.88 272.83 100.24 270.42 103.42 269.84 C 105.23 269.24 107.47 269.35 108.81 267.79 C 111.47 265.12 111.37 260.81 114.23 258.27 C 120.26 252.39 127.77 248.40 134.53 243.47 C 139.13 240.09 143.86 236.87 148.79 233.99 C 146.70 233.55 144.63 233.07 142.58 232.49 C 147.40 231.96 152.55 232.37 156.94 229.91 C 162.33 226.95 167.98 223.18 170.24 217.18 C 171.77 211.86 171.43 206.20 170.53 200.80 C 173.41 206.87 174.27 214.63 170.52 220.52 C 169.43 222.42 167.94 224.03 166.50 225.66 C 174.33 225.11 181.11 230.36 185.85 236.05 C 190.66 243.88 194.36 252.33 198.58 260.48 C 201.31 265.75 204.48 270.80 206.74 276.30 C 209.88 284.22 216.31 291.04 216.39 299.98 C 216.44 315.73 213.98 331.37 214.04 347.12 C 213.74 352.35 218.05 356.07 219.78 360.65 C 220.78 359.14 221.80 357.65 222.86 356.19 C 218.69 364.89 213.69 373.16 209.38 381.78 C 204.37 394.86 198.03 407.36 192.06 420.02 C 190.72 423.20 189.18 426.33 187.02 429.05 C 181.27 436.31 176.41 444.23 171.48 452.06 C 169.29 458.93 166.76 465.74 163.20 472.06 C 158.43 479.80 153.56 487.63 146.97 493.99 C 143.34 497.43 139.99 501.15 137.11 505.25 C 132.72 511.53 126.17 515.79 119.70 519.68 C 116.29 521.79 111.86 522.61 109.55 526.19 C 118.94 525.92 128.76 529.18 135.58 535.76 C 127.32 532.22 119.27 526.72 109.91 527.28 C 105.30 529.76 101.23 533.13 96.94 536.10 C 102.62 540.57 109.58 542.73 116.49 544.48 C 122.86 546.27 128.85 542.24 134.04 539.06 C 138.10 537.12 135.27 531.73 138.24 529.00 C 140.70 525.89 143.81 523.35 147.10 521.18 C 150.07 520.04 153.67 520.38 156.15 518.12 C 159.72 514.97 160.58 510.03 161.76 505.65 C 163.39 498.78 167.79 493.11 171.27 487.11 C 175.81 480.23 180.06 472.97 186.05 467.21 C 189.59 463.58 195.51 462.59 197.63 457.59 C 202.07 449.10 208.28 441.76 214.58 434.60 C 222.98 423.75 232.44 413.78 241.30 403.30 C 247.42 397.41 254.26 392.28 261.09 387.24 C 264.66 384.51 268.85 381.72 270.14 377.15 C 272.50 368.23 277.98 360.63 283.29 353.24 C 286.40 349.04 289.24 344.60 292.88 340.82 C 285.96 353.75 275.24 364.72 271.32 379.17 C 277.21 377.33 283.43 375.59 289.64 376.77 C 283.26 378.05 276.69 378.93 270.67 381.51 C 268.27 383.49 265.74 385.46 263.86 387.96 C 261.91 403.69 257.03 418.90 251.91 433.86 C 249.45 441.01 244.54 448.92 248.45 456.47 C 251.58 462.65 253.28 470.55 260.03 473.89 C 271.15 479.61 280.66 487.84 289.93 496.12 C 294.03 499.67 297.04 504.27 301.05 507.89 C 306.45 511.00 313.44 510.58 318.33 514.74 C 323.02 518.65 326.43 523.93 331.55 527.38 C 337.27 531.25 342.53 535.74 347.93 540.05 C 347.91 538.60 347.87 535.70 347.85 534.25 C 348.48 534.91 349.12 535.58 349.75 536.27 C 349.49 538.50 349.21 540.74 348.87 542.97 C 341.72 538.76 335.89 532.77 329.04 528.15 C 324.13 524.71 321.31 519.09 316.41 515.64 C 312.01 513.10 306.88 512.40 302.10 510.88 C 299.14 510.30 297.58 507.47 295.72 505.41 C 289.17 496.92 280.88 490.00 272.29 483.67 C 266.44 479.41 259.75 476.38 254.22 471.70 C 250.14 466.31 247.95 459.80 245.39 453.61 C 243.13 447.23 247.20 441.06 249.18 435.18 C 255.41 420.26 258.56 404.35 262.33 388.69 C 254.25 394.26 246.05 399.93 239.62 407.43 C 232.19 416.71 224.03 425.37 216.58 434.64 C 212.06 440.41 206.72 445.56 202.99 451.92 C 200.65 455.60 198.96 459.78 195.83 462.90 C 192.79 465.23 188.90 466.39 186.37 469.39 C 178.41 478.11 172.24 488.27 166.60 498.58 C 162.90 505.10 163.15 513.38 158.21 519.25 C 154.51 523.04 148.47 521.07 144.65 524.52 C 142.39 526.32 140.32 528.46 138.93 531.01 C 137.62 533.70 139.20 537.45 136.59 539.51 C 130.79 544.43 122.75 547.98 115.08 546.00 C 107.70 544.41 100.08 541.89 94.90 536.08 C 98.18 532.76 102.29 530.53 106.10 527.92 C 108.06 525.98 109.11 523.08 111.87 522.01 C 118.42 518.86 124.41 514.71 130.14 510.27 C 135.00 506.66 137.54 500.96 141.76 496.73 C 151.01 487.36 159.31 476.80 164.73 464.73 C 167.72 459.38 168.32 452.96 171.99 447.96 C 175.94 442.17 179.52 436.13 183.76 430.55 C 188.28 424.72 190.97 417.78 194.31 411.27 C 198.54 401.88 203.40 392.77 207.05 383.13 C 209.95 375.75 215.34 369.56 217.84 362.02 C 216.89 356.94 211.92 353.39 212.01 347.94 C 211.60 335.62 213.30 323.36 213.93 311.08 C 214.29 304.32 215.06 297.14 212.01 290.84 C 209.85 286.43 207.20 282.26 205.35 277.70 C 201.53 268.49 195.80 260.25 191.83 251.10 C 188.52 244.24 185.58 236.62 179.09 232.09 C 174.39 228.16 167.24 226.15 161.67 229.42 C 156.68 232.29 151.26 234.36 146.46 237.55 C 138.52 242.85 130.70 248.32 122.77 253.64 C 120.39 255.30 118.01 257.00 115.97 259.07 C 113.17 261.85 112.82 266.19 110.01 268.97 C 108.45 270.80 105.85 270.81 103.71 271.50 C 100.89 272.07 98.18 273.79 95.22 273.29 C 93.08 273.14 92.40 269.91 90.02 270.60 C 85.48 270.69 79.29 269.03 78.42 263.84 C 77.73 259.69 74.48 256.28 74.78 251.94 C 74.98 246.48 76.30 241.09 77.97 235.91 C 85.14 216.46 99.31 200.39 105.57 180.55 C 106.32 177.64 107.89 175.07 109.57 172.63 C 108.25 172.23 106.94 171.83 105.63 171.42 C 105.15 169.83 104.68 168.24 104.23 166.65 C 105.89 168.75 107.57 170.86 109.76 172.45 Z" />
<path fill="#585858" opacity="1.00" d=" M 112.54 185.04 C 115.42 181.13 120.71 181.92 124.53 183.87 C 124.43 184.37 124.23 185.36 124.13 185.86 C 124.52 186.18 125.30 186.84 125.70 187.16 C 124.95 192.44 118.61 193.67 114.20 193.10 C 117.92 191.14 122.73 190.94 125.11 186.98 C 122.15 186.67 119.17 186.58 116.21 186.87 C 115.48 188.47 114.74 190.07 113.96 191.66 C 113.95 190.76 113.91 188.97 113.90 188.08 C 113.43 187.07 112.99 186.06 112.54 185.04 M 114.34 183.82 C 114.92 184.36 115.52 184.89 116.14 185.41 C 118.18 184.85 120.33 185.42 122.37 184.87 C 120.82 182.24 116.80 183.79 114.34 183.82 Z" />
<path fill="#585858" opacity="1.00" d=" M 468.07 233.23 C 479.42 231.54 490.51 228.19 502.01 227.57 C 521.16 226.67 540.41 228.94 558.88 234.09 C 568.99 236.60 578.76 240.47 588.95 242.64 C 596.12 242.37 602.08 237.35 609.13 236.39 C 620.86 234.27 633.15 237.56 642.95 244.15 C 650.97 249.26 659.24 254.24 665.94 261.09 C 671.98 267.09 678.17 273.21 685.89 277.05 C 678.57 274.87 672.48 270.09 667.27 264.66 C 657.19 254.18 644.87 245.11 630.52 241.69 C 631.83 241.39 633.14 241.08 634.46 240.74 C 632.04 239.74 629.60 238.79 627.06 238.19 C 619.96 236.70 612.47 235.90 605.45 238.22 C 598.17 240.24 590.87 245.05 583.09 242.75 C 567.54 238.90 552.36 233.38 536.41 231.31 C 526.34 229.74 516.11 229.78 505.95 229.51 C 494.68 229.24 484.03 233.40 472.95 234.68 C 460.94 236.56 448.91 238.37 436.79 239.26 C 422.26 239.52 407.68 240.88 393.18 239.30 C 382.79 238.42 372.22 236.65 362.85 231.88 C 363.55 231.95 364.95 232.08 365.65 232.14 C 376.74 235.66 388.38 237.25 399.98 237.90 C 422.74 237.86 445.63 237.36 468.07 233.23 Z" />
<path fill="#585858" opacity="1.00" d=" M 725.89 263.67 C 730.96 270.53 729.05 281.31 722.38 286.50 C 719.55 289.09 715.77 290.10 712.05 290.49 C 718.16 288.93 723.77 284.87 726.39 279.03 C 722.08 283.34 716.35 286.48 710.06 285.46 C 715.66 284.05 721.90 282.29 725.29 277.21 C 727.99 273.14 726.27 268.12 725.89 263.67 Z" />
<path fill="#585858" opacity="1.00" d=" M 634.19 265.38 C 639.53 270.20 643.86 276.02 649.17 280.87 C 657.01 288.27 666.39 294.52 677.10 296.70 C 680.76 297.65 684.68 297.48 688.20 299.02 C 676.52 299.34 664.91 295.44 655.83 288.10 C 647.60 281.56 640.88 273.42 634.19 265.38 Z" />
<path fill="#585858" opacity="1.00" d=" M 670.68 270.72 C 678.61 275.84 686.48 281.63 695.79 283.92 C 701.51 285.37 707.60 284.52 712.78 281.74 C 707.79 287.23 699.67 286.80 693.16 284.79 C 684.70 281.91 677.23 276.69 670.68 270.72 Z" />
<path fill="#585858" opacity="1.00" d=" M 614.88 278.89 C 615.11 277.63 615.37 276.37 615.66 275.12 C 616.98 283.43 617.22 291.90 616.88 300.30 C 616.42 309.05 616.29 317.86 616.73 326.61 C 612.88 337.47 607.75 348.18 607.21 359.88 C 606.89 366.64 605.97 373.92 609.24 380.16 C 615.61 393.77 627.90 403.47 641.07 410.08 C 645.94 412.42 652.01 413.10 655.75 417.27 C 660.02 425.51 659.48 435.15 661.54 444.03 C 663.35 457.51 666.70 470.77 671.72 483.42 C 674.19 489.43 677.67 495.13 682.49 499.54 C 684.90 501.88 687.62 504.05 689.25 507.05 C 690.26 508.90 689.01 510.91 688.75 512.77 C 692.04 512.11 695.27 510.60 698.66 510.67 C 702.95 512.57 706.05 516.39 708.88 520.02 C 713.11 526.22 716.25 533.10 719.15 540.00 C 718.94 540.65 718.54 541.96 718.33 542.61 C 713.66 544.42 708.77 542.54 704.10 541.75 C 694.28 540.04 685.44 535.25 676.19 531.81 C 671.13 529.93 665.81 528.02 662.02 523.99 C 659.34 521.29 658.18 517.56 656.93 514.07 C 654.25 505.49 651.69 496.85 649.97 488.02 C 648.06 478.49 646.52 468.42 640.64 460.38 C 631.49 446.72 617.24 437.75 602.94 430.30 C 594.91 426.31 589.25 419.05 581.57 414.57 C 572.89 409.28 564.54 403.45 555.55 398.68 C 550.81 396.17 545.54 394.79 540.99 391.90 C 536.05 388.70 531.15 385.31 527.13 380.97 C 521.95 387.64 516.40 394.24 513.02 402.06 C 510.60 407.29 510.69 413.17 509.40 418.70 C 507.41 427.74 503.62 436.60 504.21 446.03 C 504.37 451.16 504.04 457.14 499.68 460.60 C 488.25 469.79 478.12 480.49 469.05 492.00 C 460.84 502.19 451.76 511.95 446.03 523.85 C 444.09 528.68 443.59 534.73 438.93 537.91 C 434.54 540.52 430.73 544.53 425.39 545.02 C 426.09 550.62 422.34 556.46 416.94 558.04 C 407.67 558.54 398.31 558.14 389.14 556.59 C 386.62 556.11 384.69 554.34 383.33 552.26 C 387.31 545.82 393.17 540.87 398.76 535.88 C 403.65 531.43 409.31 527.62 412.91 521.95 C 415.80 517.55 418.76 513.15 422.21 509.16 C 430.29 500.63 439.79 493.51 447.26 484.40 C 451.94 478.74 456.97 473.22 460.32 466.62 C 463.86 459.95 463.23 452.09 466.01 445.16 C 468.37 439.03 467.75 432.42 468.21 426.01 C 468.62 417.48 467.90 408.87 469.38 400.42 C 471.31 389.58 473.73 378.75 473.85 367.70 C 459.66 373.47 445.81 380.36 430.85 383.99 C 421.07 386.58 411.06 388.24 400.98 388.99 C 384.00 389.75 367.04 388.44 350.12 387.29 C 338.76 386.82 327.38 387.27 316.02 386.99 C 314.75 387.20 312.65 386.31 312.06 387.95 C 308.46 395.65 303.45 402.55 298.43 409.37 C 294.14 414.40 292.05 420.81 288.14 426.10 C 283.41 432.85 277.68 439.12 275.10 447.11 C 273.34 451.88 271.47 458.26 275.60 462.37 C 286.03 473.01 299.36 480.85 313.85 484.43 C 318.70 486.17 324.14 486.57 328.52 489.40 C 331.02 492.43 330.50 497.03 333.03 500.08 C 335.60 502.08 339.50 499.71 342.02 501.93 C 345.53 504.84 348.98 508.48 349.80 513.14 C 351.32 519.66 350.49 526.40 350.34 533.02 C 349.83 533.13 348.81 533.37 348.30 533.49 C 348.75 527.21 349.19 520.86 348.38 514.60 C 347.87 509.79 344.65 505.72 340.82 503.00 C 339.09 501.38 338.29 503.60 337.97 505.01 C 335.73 512.92 336.62 521.25 335.07 529.28 C 333.69 520.60 334.48 511.64 337.10 503.28 C 334.96 502.92 332.77 501.87 330.62 502.77 C 329.60 499.36 329.27 495.69 327.61 492.51 C 324.96 488.48 319.68 488.06 315.49 486.60 C 308.28 485.08 301.34 482.50 294.72 479.30 C 288.75 476.19 283.47 471.94 278.14 467.87 C 274.81 465.12 271.48 461.59 271.14 457.07 C 271.09 450.57 273.97 444.56 276.88 438.91 C 281.69 430.57 288.72 423.68 292.85 414.91 C 298.47 405.22 305.97 396.69 311.19 386.73 C 304.86 385.86 298.46 385.05 292.38 382.98 C 301.22 383.82 310.05 384.97 318.95 384.92 C 331.89 384.93 344.87 384.47 357.77 385.78 C 373.54 386.42 389.32 388.47 405.10 387.01 C 424.87 384.33 444.25 378.80 462.42 370.53 C 471.96 366.19 482.07 362.23 492.72 362.43 C 486.90 363.37 481.26 365.06 475.69 367.03 C 476.38 381.59 471.43 395.61 470.57 410.04 C 470.50 422.99 471.24 436.35 467.05 448.82 C 465.30 454.19 465.47 460.01 463.33 465.27 C 461.47 470.63 457.87 475.10 454.39 479.49 C 444.24 491.59 432.37 502.07 421.28 513.27 C 417.01 518.43 414.54 524.98 409.35 529.40 C 405.14 532.87 401.03 536.46 397.23 540.39 C 406.19 539.38 415.66 541.65 422.87 547.17 C 422.90 546.17 422.98 544.17 423.02 543.16 C 422.63 541.06 420.12 540.87 418.65 539.91 C 421.97 537.84 425.34 540.37 427.45 542.91 C 431.08 540.75 434.71 538.53 438.02 535.89 C 441.49 533.00 441.00 527.95 442.92 524.18 C 446.56 516.74 451.49 510.02 456.60 503.53 C 462.83 495.81 468.93 487.98 475.59 480.62 C 480.98 475.03 486.44 469.51 492.15 464.24 C 495.76 460.85 501.24 458.49 501.93 452.99 C 502.43 447.25 502.00 441.44 502.95 435.71 C 504.20 427.70 507.46 420.12 508.23 412.01 C 508.85 399.21 517.69 388.80 526.33 380.14 C 522.62 375.63 518.74 371.24 515.35 366.48 C 511.13 361.04 505.95 355.84 499.21 353.76 C 491.77 351.35 483.85 352.73 476.36 354.08 C 483.87 351.51 492.21 348.97 500.01 351.84 C 505.69 353.51 510.07 357.65 513.90 361.98 C 510.33 354.65 508.36 346.74 506.12 338.95 C 508.97 345.75 511.57 352.65 514.55 359.39 C 520.20 372.41 530.47 383.17 542.64 390.32 C 549.77 393.84 557.48 396.26 564.08 400.82 C 570.68 405.39 577.47 409.68 584.41 413.73 C 591.88 418.34 597.63 425.40 605.58 429.31 C 621.54 437.27 636.58 448.66 645.30 464.55 C 650.11 474.58 650.99 485.87 654.23 496.42 C 656.47 503.93 657.98 511.74 661.26 518.90 C 662.68 522.30 665.93 524.33 669.06 525.99 C 678.63 530.75 688.90 533.91 698.44 538.72 C 698.29 538.14 697.97 536.99 697.82 536.41 C 693.75 530.04 693.13 522.32 691.55 515.12 C 689.79 513.81 686.35 514.60 685.27 516.81 C 685.45 518.42 685.70 520.01 686.02 521.61 C 685.15 520.07 684.13 518.57 683.67 516.85 C 684.15 514.01 687.17 512.02 686.88 508.93 C 686.97 505.79 684.01 503.97 682.03 502.02 C 674.82 496.22 670.62 487.61 667.69 479.02 C 665.14 471.10 662.59 463.14 661.35 454.90 C 660.10 447.50 659.24 440.04 657.58 432.72 C 656.50 427.69 656.68 421.87 653.23 417.73 C 648.60 414.22 642.62 413.22 637.62 410.34 C 626.98 404.51 616.95 396.96 610.14 386.78 C 607.25 381.97 604.69 376.63 604.80 370.90 C 604.82 364.33 604.29 357.62 606.11 351.22 C 607.54 345.22 609.68 339.44 611.80 333.66 C 615.12 324.47 614.26 314.54 614.34 304.96 C 614.74 302.55 615.37 300.19 616.05 297.85 C 615.61 296.22 615.31 294.57 614.79 292.98 C 616.13 288.36 614.69 283.58 614.88 278.89 M 692.48 514.55 C 694.22 519.67 694.88 525.10 696.80 530.17 C 697.91 533.31 699.45 536.28 700.44 539.47 C 705.95 540.28 711.46 541.55 717.08 541.16 C 714.27 534.20 711.10 527.34 707.05 521.01 C 704.90 517.53 701.76 514.53 697.91 513.05 C 696.01 513.14 694.26 513.97 692.48 514.55 M 386.30 552.38 C 389.16 555.03 393.29 555.15 396.95 555.64 C 403.00 556.44 409.12 556.25 415.19 555.81 C 419.48 555.66 422.19 551.49 423.08 547.69 C 414.57 543.94 405.61 540.36 396.11 541.12 C 392.85 544.81 388.08 547.67 386.30 552.38 Z" />
<path fill="#585858" opacity="1.00" d=" M 642.42 280.04 C 647.45 289.70 650.10 300.41 651.70 311.14 C 654.18 327.27 662.73 341.70 672.57 354.42 C 666.08 348.82 661.82 341.29 657.52 334.01 C 656.73 332.23 656.06 330.42 655.35 328.62 C 652.09 321.09 650.54 312.98 649.56 304.88 C 648.47 296.28 645.72 288.01 642.42 280.04 Z" />
<path fill="#585858" opacity="1.00" d=" M 661.78 288.35 C 666.49 290.30 671.08 292.64 676.08 293.79 C 684.53 295.80 693.20 296.71 701.78 297.98 C 697.58 298.73 693.25 298.87 689.05 298.15 C 679.66 295.99 669.43 294.76 661.78 288.35 Z" />
<path fill="#585858" opacity="1.00" d=" M 656.92 297.97 C 662.72 313.14 669.67 327.91 678.27 341.70 C 672.94 337.40 670.97 330.42 667.60 324.69 C 666.21 321.88 664.91 319.03 663.59 316.20 C 660.87 310.32 658.60 304.23 656.92 297.97 Z" />
<path fill="#585858" opacity="1.00" d=" M 707.53 299.21 C 711.52 302.13 715.50 305.22 720.21 306.92 C 731.98 311.24 744.86 311.54 757.16 309.69 C 762.67 309.60 767.41 306.59 771.71 303.46 C 768.08 306.49 764.26 310.14 759.34 310.65 L 759.21 310.66 C 757.23 310.76 755.25 310.83 753.32 311.26 C 751.29 311.69 749.25 312.09 747.19 312.13 C 741.95 312.11 736.70 311.96 731.52 311.10 C 722.50 309.88 713.76 305.96 707.53 299.21 Z" />
<path fill="#585858" opacity="1.00" d=" M 633.48 313.98 C 633.67 320.14 633.92 326.48 636.53 332.19 C 642.55 347.26 655.31 358.53 669.16 366.36 C 665.74 354.40 656.48 345.71 649.30 336.00 C 648.64 334.97 647.71 334.13 646.43 334.02 C 646.73 333.56 647.35 332.64 647.65 332.18 C 651.32 338.35 656.70 343.22 660.92 348.99 C 666.06 355.46 669.87 362.96 672.07 370.93 C 674.43 379.00 676.55 387.44 675.07 395.90 C 674.64 385.98 672.60 376.13 669.27 366.79 C 660.04 363.21 652.23 356.72 645.77 349.34 C 637.40 339.69 631.95 326.92 633.48 313.98 Z" />
<path fill="#585858" opacity="1.00" d=" M 655.75 315.42 C 661.08 331.69 669.39 347.25 681.54 359.46 C 685.32 363.38 689.63 366.73 693.55 370.51 C 680.73 362.90 671.07 350.97 664.09 337.97 C 660.17 330.94 657.40 323.29 655.75 315.42 Z" />
<path fill="#585858" opacity="1.00" d=" M 674.95 341.83 C 676.51 343.39 678.05 344.98 679.55 346.61 C 686.21 354.96 693.72 362.78 702.50 368.94 C 699.02 362.60 694.69 356.72 691.91 350.01 C 698.59 362.71 707.88 373.75 717.90 383.92 C 723.32 389.23 729.13 394.18 735.57 398.23 C 722.84 393.28 714.63 381.86 705.24 372.60 C 693.27 364.47 682.75 354.06 674.95 341.83 Z" />
<path fill="#585858" opacity="1.00" d=" M 727.10 376.09 C 730.17 378.28 733.09 380.70 736.40 382.54 C 746.82 388.68 759.36 389.91 769.60 396.42 C 772.97 398.51 775.55 401.60 778.01 404.66 C 764.37 389.55 740.29 391.83 727.10 376.09 Z" />
<path fill="#585858" opacity="1.00" d=" M 295.39 446.89 C 298.12 445.01 295.96 450.16 295.39 446.89 Z" />
</g>
<g id="#909090ff">
<path fill="#909090" opacity="1.00" d=" M 196.89 112.61 C 197.87 112.50 198.84 112.39 199.82 112.28 C 199.29 112.74 198.21 113.65 197.68 114.10 C 200.27 114.11 202.91 113.91 205.46 114.48 C 207.91 115.06 209.83 116.83 212.13 117.76 C 215.17 117.88 218.20 117.48 221.25 117.46 C 219.51 118.07 217.81 118.78 216.14 119.54 C 213.32 118.71 210.51 119.84 207.80 120.50 C 203.66 121.55 199.74 123.27 195.82 124.93 C 199.89 121.06 205.40 119.58 210.61 117.95 C 207.58 116.56 204.34 115.51 200.97 115.52 C 197.03 115.31 193.40 117.11 189.58 117.76 C 191.45 116.10 193.60 114.81 195.68 113.44 C 195.91 113.28 196.37 112.97 196.60 112.81 L 196.89 112.61 Z" />
<path fill="#909090" opacity="1.00" d=" M 168.61 123.74 C 169.86 120.39 172.57 118.03 175.94 116.94 C 172.71 119.31 170.51 122.66 169.24 126.44 C 169.97 126.60 171.43 126.94 172.16 127.11 C 170.73 127.50 169.30 127.88 167.87 128.25 C 168.39 128.58 169.43 129.25 169.95 129.59 C 167.31 130.88 164.78 132.45 162.86 134.71 C 169.60 129.46 178.23 128.49 186.24 126.36 C 181.56 130.62 174.83 130.00 169.34 132.49 C 166.01 133.74 163.23 136.08 161.19 138.97 C 161.34 138.14 161.63 136.46 161.78 135.62 C 160.49 137.06 159.22 138.52 157.86 139.89 C 159.34 136.83 161.48 134.17 163.29 131.31 C 165.48 129.46 169.30 127.87 168.62 124.40 L 168.61 123.74 Z" />
<path fill="#909090" opacity="1.00" d=" M 135.54 125.55 C 137.00 129.28 135.76 134.04 139.47 136.64 C 139.80 135.91 140.47 134.45 140.80 133.72 C 140.96 138.93 140.49 144.13 140.12 149.32 C 138.14 146.18 139.53 142.43 139.46 138.99 C 139.07 136.58 136.67 135.39 135.26 133.64 C 134.93 130.95 135.32 128.23 135.54 125.55 Z" />
<path fill="#909090" opacity="1.00" d=" M 180.90 139.88 C 188.36 132.00 199.93 136.60 209.09 133.38 C 204.27 136.64 198.25 135.58 192.78 136.33 C 188.58 136.58 184.79 138.46 180.90 139.88 Z" />
<path fill="#909090" opacity="1.00" d=" M 119.45 209.42 C 121.97 205.61 124.39 201.73 126.92 197.94 C 124.20 205.40 117.72 211.24 117.36 219.55 C 116.66 216.01 117.21 212.32 119.45 209.42 Z" />
<path fill="#909090" opacity="1.00" d=" M 614.44 269.57 C 614.19 272.05 611.51 269.72 613.81 268.96 L 614.44 269.57 Z" />
<path fill="#909090" opacity="1.00" d=" M 238.94 281.86 C 242.40 279.44 245.57 276.61 249.24 274.49 C 245.92 279.43 240.23 282.02 235.74 285.75 C 231.13 288.89 227.48 293.11 223.73 297.17 C 227.00 290.56 233.11 286.07 238.94 281.86 Z" />
<path fill="#909090" opacity="1.00" d=" M 321.22 289.93 C 320.53 284.46 316.73 280.18 315.00 275.09 C 318.18 279.69 321.62 284.47 322.42 290.16 C 323.13 295.50 323.12 301.10 321.22 306.22 C 319.42 311.05 316.87 315.57 314.25 320.00 C 316.16 314.76 318.64 309.74 320.35 304.43 C 321.90 299.77 321.82 294.74 321.22 289.93 Z" />
<path fill="#909090" opacity="1.00" d=" M 624.77 283.97 C 626.16 292.56 625.83 301.41 623.64 309.84 C 621.42 318.87 620.26 329.59 626.82 337.18 C 626.79 329.67 625.97 322.06 627.54 314.65 C 628.39 320.05 628.39 325.53 628.57 330.99 C 628.53 335.12 630.51 338.84 631.39 342.80 C 633.99 354.29 640.22 364.77 648.23 373.31 C 642.79 364.08 637.94 353.93 638.29 342.94 C 639.12 346.94 639.68 351.02 640.97 354.91 C 643.47 362.76 647.87 369.81 652.46 376.58 C 656.97 382.57 661.33 388.72 666.72 393.99 C 658.75 389.84 654.99 381.24 648.19 375.76 C 641.28 369.39 637.17 360.83 631.80 353.28 C 629.18 349.09 628.85 344.02 627.32 339.43 C 625.54 336.43 622.31 334.37 621.32 330.88 C 618.05 322.10 621.43 312.86 623.26 304.17 C 624.98 297.57 624.97 290.73 624.77 283.97 Z" />
<path fill="#909090" opacity="1.00" d=" M 634.34 297.67 C 634.58 298.89 634.82 300.11 635.06 301.34 C 636.21 309.57 638.64 317.58 641.97 325.19 C 643.26 328.22 644.82 331.13 646.43 334.02 C 646.95 335.44 647.42 336.89 647.96 338.32 C 639.92 327.16 634.78 313.55 634.33 299.76 C 634.33 299.24 634.34 298.19 634.34 297.67 Z" />
<path fill="#909090" opacity="1.00" d=" M 664.01 308.16 C 670.92 318.16 681.61 326.63 694.18 327.17 C 690.12 324.91 685.44 323.92 681.75 321.00 C 687.10 322.97 692.31 325.51 698.02 326.31 C 703.80 327.28 709.68 326.27 715.27 324.71 C 709.35 328.99 701.81 327.99 694.97 328.81 C 681.88 328.28 669.98 319.61 664.01 308.16 Z" />
<path fill="#909090" opacity="1.00" d=" M 606.83 328.94 C 605.52 332.42 603.64 335.63 601.88 338.89 C 599.11 344.03 597.23 349.57 595.19 355.02 C 595.62 345.24 601.29 336.65 606.83 328.94 Z" />
<path fill="#909090" opacity="1.00" d=" M 477.43 339.38 C 479.02 338.26 480.64 337.20 482.30 336.19 C 479.58 339.97 475.58 342.48 471.64 344.81 C 463.85 349.23 455.01 352.18 445.96 351.62 C 457.43 351.06 468.24 346.05 477.43 339.38 Z" />
<path fill="#909090" opacity="1.00" d=" M 694.96 341.81 C 700.00 345.23 704.76 349.08 710.21 351.87 C 716.13 354.96 722.57 356.88 728.99 358.66 C 715.94 358.11 704.09 350.70 694.96 341.81 Z" />
<path fill="#909090" opacity="1.00" d=" M 754.88 348.16 C 763.61 349.90 772.08 354.27 777.71 361.30 C 779.37 363.27 780.29 365.73 780.96 368.20 C 777.95 364.52 775.59 360.24 771.80 357.26 C 766.89 353.01 760.80 350.59 754.88 348.16 Z" />
<path fill="#909090" opacity="1.00" d=" M 282.11 416.03 C 286.67 411.12 290.27 405.34 295.24 400.81 C 286.72 415.31 272.42 425.64 265.01 440.92 C 268.55 431.34 275.60 423.69 282.11 416.03 Z" />
<path fill="#909090" opacity="1.00" d=" M 209.34 419.29 C 214.68 416.02 219.28 411.76 224.27 408.02 C 218.85 416.22 209.54 420.29 201.91 426.02 C 195.28 430.52 189.56 436.14 183.87 441.74 C 190.95 432.81 199.74 425.39 209.34 419.29 Z" />
<path fill="#909090" opacity="1.00" d=" M 632.94 416.06 C 631.41 414.39 630.60 412.27 630.01 410.13 C 633.23 416.80 639.80 420.83 644.00 426.77 C 639.55 424.08 636.27 419.96 632.94 416.06 Z" />
<path fill="#909090" opacity="1.00" d=" M 617.86 426.76 C 621.57 428.66 624.83 431.28 628.05 433.89 C 630.73 436.11 633.74 438.19 635.26 441.46 C 632.38 439.47 629.93 436.96 627.27 434.71 C 624.16 432.02 620.70 429.75 617.86 426.76 Z" />
<path fill="#909090" opacity="1.00" d=" M 651.04 452.40 C 652.61 451.48 653.84 450.10 655.23 448.94 C 654.30 450.62 653.75 453.03 651.61 453.58 C 649.32 453.87 647.08 453.12 644.89 452.60 C 646.94 452.54 648.99 452.61 651.04 452.40 Z" />
<path fill="#909090" opacity="1.00" d=" M 651.34 470.96 C 650.39 466.35 649.43 461.73 649.35 457.01 C 651.63 467.75 654.23 478.43 656.63 489.15 C 657.92 495.10 659.75 501.03 659.65 507.19 C 656.73 495.15 653.61 483.14 651.34 470.96 Z" />
<path fill="#909090" opacity="1.00" d=" M 273.75 466.98 C 277.23 469.57 279.86 473.08 283.07 475.96 C 287.85 480.55 293.18 484.51 298.81 487.99 C 292.30 485.96 287.09 481.36 282.30 476.69 C 279.26 473.63 276.17 470.57 273.75 466.98 Z" />
<path fill="#909090" opacity="1.00" d=" M 455.86 482.93 C 460.10 477.66 463.68 471.87 468.20 466.83 C 467.42 468.76 466.50 470.64 465.27 472.32 C 455.75 485.30 445.28 497.55 434.99 509.91 C 441.61 500.66 448.82 491.86 455.86 482.93 Z" />
</g>
<g id="#717171ff">
<path fill="#717171" opacity="1.00" d=" M 250.62 140.44 C 255.33 137.16 261.69 136.88 267.14 137.14 C 267.00 137.34 266.74 137.74 266.60 137.94 C 261.28 138.82 255.89 139.28 250.62 140.44 Z" />
<path fill="#717171" opacity="1.00" d=" M 264.90 155.82 C 268.09 155.52 271.54 155.01 274.50 156.58 C 278.35 158.54 281.08 162.06 284.69 164.39 C 288.98 167.57 294.25 168.75 299.15 170.66 C 290.25 171.24 283.40 164.90 276.15 160.85 C 272.10 158.30 267.10 159.15 262.85 160.63 C 266.60 157.79 271.40 158.13 275.81 158.68 C 272.78 155.98 268.64 156.39 264.90 155.82 Z" />
<path fill="#717171" opacity="1.00" d=" M 279.57 158.31 C 287.22 157.67 294.21 161.33 301.66 162.23 L 301.46 163.45 C 293.95 162.71 287.02 159.41 279.57 158.31 Z" />
<path fill="#717171" opacity="1.00" d=" M 237.05 171.19 C 246.80 172.97 255.33 178.46 263.79 183.34 C 273.38 189.15 282.83 195.26 291.52 202.37 C 297.95 207.26 304.07 212.58 310.91 216.90 C 298.89 211.26 289.52 201.58 278.63 194.22 C 267.54 186.76 256.42 179.20 244.26 173.58 C 241.94 172.53 239.48 171.89 237.05 171.19 Z" />
<path fill="#717171" opacity="1.00" d=" M 109.11 180.03 C 110.42 177.28 113.69 177.25 116.30 177.16 C 114.39 177.99 112.15 178.32 110.57 179.77 C 110.22 181.29 110.08 182.84 109.82 184.38 C 109.10 183.11 108.06 181.44 109.11 180.03 Z" />
<path fill="#717171" opacity="1.00" d=" M 307.75 197.98 C 311.69 201.91 315.62 206.21 321.06 208.04 C 326.72 210.32 333.83 209.66 338.21 205.14 C 340.29 203.20 340.73 200.27 341.56 197.69 C 342.65 203.91 337.99 208.84 333.24 212.03 C 340.01 213.74 346.95 216.43 354.04 215.01 C 358.42 214.06 362.38 211.84 366.08 209.39 C 363.09 215.05 356.95 218.13 350.75 218.69 C 354.37 219.92 358.22 220.27 362.02 219.99 C 366.36 219.81 370.18 217.50 374.16 216.02 C 371.53 218.41 368.98 220.91 366.12 223.03 C 362.29 225.71 357.47 225.89 352.98 226.16 C 357.08 228.42 361.56 229.87 365.65 232.14 C 364.95 232.08 363.55 231.95 362.85 231.88 C 360.59 231.51 358.60 230.29 356.51 229.44 C 352.67 227.64 348.53 226.61 344.72 224.76 C 342.47 223.52 340.19 222.35 337.78 221.47 C 338.42 221.41 339.68 221.30 340.32 221.24 C 345.31 221.87 349.95 224.26 355.03 224.34 C 359.03 224.50 362.96 223.23 366.38 221.21 C 357.01 223.34 348.08 219.17 339.02 217.55 C 337.50 217.23 336.08 216.55 334.68 215.93 C 338.56 215.98 342.42 216.59 346.30 216.76 C 340.16 215.44 334.18 213.46 328.25 211.49 C 324.77 210.39 321.08 209.84 317.86 208.04 C 313.66 205.68 310.24 202.08 307.75 197.98 Z" />
<path fill="#717171" opacity="1.00" d=" M 82.93 242.90 C 88.98 243.61 89.41 252.58 85.81 256.22 C 86.03 252.89 87.27 249.35 85.93 246.11 C 85.09 244.90 83.95 243.95 82.93 242.90 Z" />
<path fill="#717171" opacity="1.00" d=" M 598.07 261.17 C 599.15 261.30 600.25 261.41 601.35 261.52 C 604.80 265.25 607.79 269.72 607.69 275.02 C 609.49 281.19 613.11 286.72 614.79 292.98 C 615.31 294.57 615.61 296.22 616.05 297.85 C 615.37 300.19 614.74 302.55 614.34 304.96 L 614.16 305.92 C 614.28 290.54 604.88 277.60 600.92 263.25 C 600.10 262.39 599.15 261.70 598.07 261.17 M 604.15 268.07 C 604.15 268.47 604.16 269.26 604.16 269.65 L 604.95 269.85 C 604.94 269.45 604.93 268.66 604.93 268.27 L 604.15 268.07 C 605.64 265.08 600.85 267.47 604.15 268.07 M 604.95 269.85 C 603.48 272.88 608.21 270.37 604.95 269.85 Z" />
<path fill="#717171" opacity="1.00" d=" M 611.67 272.49 C 612.01 272.38 612.70 272.14 613.04 272.03 C 613.30 274.33 613.62 276.63 613.79 278.95 C 613.89 280.75 613.27 282.49 612.82 284.21 C 612.46 280.30 612.29 276.37 611.67 272.49 Z" />
<path fill="#717171" opacity="1.00" d=" M 718.24 293.27 C 722.60 290.82 725.00 286.29 728.13 282.58 C 726.59 290.18 719.68 294.76 713.01 297.56 C 722.70 298.17 732.43 295.11 740.21 289.35 C 736.17 295.04 729.17 297.41 722.56 298.41 C 719.08 298.74 715.36 299.12 712.11 297.59 C 706.18 297.19 700.15 296.39 694.92 293.37 C 702.31 295.93 711.18 297.60 718.24 293.27 Z" />
<path fill="#717171" opacity="1.00" d=" M 636.30 299.97 C 636.33 299.15 636.35 298.33 636.38 297.51 C 639.39 309.53 646.36 320.17 654.33 329.51 C 654.03 329.77 653.44 330.28 653.14 330.54 C 645.94 321.37 639.03 311.50 636.30 299.97 Z" />
<path fill="#717171" opacity="1.00" d=" M 616.73 326.61 C 616.29 317.86 616.42 309.05 616.88 300.30 C 617.12 318.51 618.53 337.01 624.77 354.26 C 627.15 360.79 630.72 366.77 634.56 372.53 C 629.64 369.19 627.05 363.60 624.65 358.37 C 620.15 348.33 618.65 337.35 616.73 326.61 Z" />
<path fill="#717171" opacity="1.00" d=" M 689.94 303.28 C 697.08 305.19 703.79 308.43 711.00 310.11 C 716.83 311.62 722.85 312.05 728.83 312.54 C 730.49 312.82 732.13 313.21 733.79 313.57 C 718.43 315.00 703.71 309.43 689.94 303.28 Z" />
<path fill="#717171" opacity="1.00" d=" M 678.81 342.13 C 678.83 342.16 678.87 342.21 678.89 342.23 C 678.87 342.21 678.83 342.16 678.81 342.13 Z" />
<path fill="#717171" opacity="1.00" d=" M 711.89 349.15 C 716.56 351.03 721.03 353.48 726.00 354.52 C 735.48 356.92 745.33 356.45 755.02 356.81 C 762.21 356.90 770.00 358.46 775.10 363.96 C 770.03 361.32 764.73 358.82 758.94 358.38 C 750.59 357.81 742.17 358.15 733.84 357.15 C 726.05 356.14 718.51 353.38 711.89 349.15 Z" />
<path fill="#717171" opacity="1.00" d=" M 776.72 351.02 L 778.52 351.36 C 786.97 354.59 794.81 359.53 801.89 365.17 C 809.23 371.23 815.83 378.78 818.82 387.97 C 812.07 375.03 801.10 364.59 788.49 357.40 C 784.63 355.15 780.57 353.26 776.72 351.02 Z" />
<path fill="#717171" opacity="1.00" d=" M 705.89 359.86 C 709.25 362.27 712.38 365.02 716.06 366.97 C 721.28 370.01 727.15 371.57 732.94 373.15 C 744.79 376.27 756.87 378.85 768.11 383.88 C 755.21 380.39 742.26 377.05 729.36 373.52 C 720.54 371.14 711.91 366.90 705.89 359.86 Z" />
<path fill="#717171" opacity="1.00" d=" M 734.04 369.22 C 740.79 371.09 747.55 373.00 754.52 373.89 C 764.31 375.14 774.28 376.48 783.38 380.56 C 791.74 384.21 799.82 388.84 806.77 394.77 C 806.76 395.14 806.73 395.89 806.72 396.26 C 798.94 390.41 790.72 385.02 781.69 381.32 C 766.45 374.84 749.18 376.08 734.04 369.22 Z" />
<path fill="#717171" opacity="1.00" d=" M 803.94 371.96 C 815.59 385.24 820.26 403.74 818.18 421.11 C 817.22 414.24 816.17 407.31 813.28 400.94 C 812.71 399.64 812.12 398.35 811.44 397.11 C 806.92 389.73 800.77 383.18 793.06 379.11 C 804.73 383.42 812.77 394.36 816.82 405.77 C 816.35 393.45 811.00 381.87 803.94 371.96 Z" />
</g>
<g id="#b7b7b7ff">
<path fill="#b7b7b7" opacity="1.00" d=" M 287.23 146.58 C 289.16 146.69 291.11 146.70 293.05 146.58 C 295.48 148.09 297.96 149.54 300.20 151.33 L 298.67 151.41 C 298.14 151.44 297.09 151.51 296.56 151.55 L 295.88 151.59 L 295.26 151.63 C 293.15 149.25 290.47 147.56 287.26 147.25 L 287.23 146.58 Z" />
<path fill="#b7b7b7" opacity="1.00" d=" M 186.62 152.84 C 194.64 155.64 201.23 161.35 208.74 165.15 C 209.14 165.00 209.93 164.70 210.32 164.56 C 215.21 169.41 220.62 173.95 224.10 180.00 C 213.43 168.62 199.17 161.75 186.62 152.84 Z" />
<path fill="#b7b7b7" opacity="1.00" d=" M 133.10 182.32 C 133.78 176.96 139.00 173.40 144.08 172.87 C 141.77 174.30 139.27 175.46 137.20 177.25 C 135.72 178.85 134.73 180.85 133.10 182.32 Z" />
<path fill="#b7b7b7" opacity="1.00" d=" M 201.60 234.54 C 200.00 230.72 197.72 227.10 197.15 222.92 C 205.75 239.02 212.60 256.17 216.60 274.01 C 211.34 260.95 207.44 247.37 201.60 234.54 Z" />
<path fill="#b7b7b7" opacity="1.00" d=" M 241.80 231.96 C 241.31 236.71 239.08 240.99 237.25 245.33 C 232.84 255.33 227.18 264.90 224.60 275.62 C 223.53 279.70 222.87 283.87 222.39 288.05 C 222.13 283.22 222.21 278.30 223.66 273.64 C 227.85 258.98 237.01 246.39 241.80 231.96 Z" />
<path fill="#b7b7b7" opacity="1.00" d=" M 627.06 238.19 C 629.60 238.79 632.04 239.74 634.46 240.74 C 633.14 241.08 631.83 241.39 630.52 241.69 C 626.89 241.52 623.40 240.28 619.85 239.58 C 622.29 239.34 624.73 238.98 627.06 238.19 Z" />
<path fill="#b7b7b7" opacity="1.00" d=" M 503.14 277.85 C 505.94 283.72 507.43 290.12 508.58 296.49 C 509.68 303.98 510.47 311.75 508.54 319.18 C 507.47 312.16 508.51 305.02 507.27 298.03 C 506.29 291.22 504.47 284.58 503.14 277.85 Z" />
<path fill="#b7b7b7" opacity="1.00" d=" M 753.32 311.26 C 755.25 310.83 757.23 310.76 759.21 310.66 C 758.46 311.37 757.73 312.09 757.02 312.82 C 758.20 313.08 759.39 313.33 760.59 313.56 C 754.46 316.47 747.73 317.72 741.13 319.04 C 728.52 321.47 714.80 319.96 703.80 313.01 C 709.08 314.44 714.09 316.86 719.57 317.58 C 729.39 318.70 739.36 318.05 748.91 315.48 C 748.24 315.08 747.57 314.69 746.91 314.29 C 748.74 313.79 750.57 313.27 752.38 312.70 L 753.32 311.26 Z" />
<path fill="#b7b7b7" opacity="1.00" d=" M 761.84 324.61 C 768.79 322.69 775.98 319.62 783.30 321.45 C 778.63 322.29 773.89 322.87 769.43 324.54 C 761.08 327.58 752.39 329.95 743.47 330.25 L 743.32 331.67 C 751.87 330.86 760.52 330.92 768.95 329.05 C 774.10 328.25 778.78 325.86 783.82 324.62 C 782.39 326.48 780.42 327.78 778.20 328.48 C 767.23 332.33 755.47 332.87 743.96 333.14 C 739.24 333.33 734.60 334.24 729.89 334.49 C 733.82 332.51 738.27 332.24 742.57 331.82 L 742.66 330.69 C 733.34 330.79 723.70 331.56 714.75 328.39 C 720.50 328.58 726.23 329.43 732.01 329.18 C 738.34 328.92 744.84 329.49 750.99 327.64 C 744.87 326.95 738.41 327.28 732.80 324.34 C 742.34 326.06 752.34 327.29 761.84 324.61 Z" />
<path fill="#b7b7b7" opacity="1.00" d=" M 664.69 324.21 C 665.42 324.33 666.87 324.57 667.60 324.69 C 670.97 330.42 672.94 337.40 678.27 341.70 L 678.81 342.13 C 678.83 342.16 678.87 342.21 678.89 342.23 C 679.78 343.25 683.05 346.77 679.55 346.61 C 678.05 344.98 676.51 343.39 674.95 341.83 C 670.49 336.65 667.99 330.14 664.69 324.21 Z" />
<path fill="#b7b7b7" opacity="1.00" d=" M 743.82 335.40 C 753.11 336.91 762.56 337.41 771.95 336.76 C 777.96 336.08 784.07 335.32 790.10 336.16 C 795.87 337.55 801.85 339.56 806.04 343.99 C 801.26 342.54 797.04 339.22 791.92 339.01 C 784.38 338.50 777.02 340.56 769.61 341.53 C 765.41 342.12 761.17 341.98 756.96 342.24 C 764.08 345.37 772.23 346.51 778.52 351.36 L 776.72 351.02 C 771.02 349.48 765.86 346.37 760.26 344.48 C 753.60 340.79 745.60 341.60 738.82 338.25 C 744.54 338.86 750.17 340.29 755.96 340.41 C 763.63 340.93 771.22 339.58 778.81 338.68 L 778.79 338.07 C 769.20 338.55 759.52 339.03 749.99 337.56 C 747.80 337.27 745.76 336.40 743.82 335.40 Z" />
<path fill="#b7b7b7" opacity="1.00" d=" M 231.73 344.20 C 234.70 339.94 240.07 338.54 244.95 337.99 C 248.79 337.69 252.83 337.13 256.50 338.64 C 251.37 339.39 246.13 339.06 241.05 340.18 C 237.66 340.78 234.76 342.71 231.73 344.20 Z" />
<path fill="#b7b7b7" opacity="1.00" d=" M 545.74 351.61 C 548.72 354.48 550.05 358.48 551.85 362.10 C 554.44 367.88 557.49 373.70 557.84 380.16 C 555.36 375.38 553.98 370.14 551.73 365.27 C 549.87 360.65 547.34 356.33 545.74 351.61 Z" />
<path fill="#b7b7b7" opacity="1.00" d=" M 589.44 376.23 C 590.10 372.60 591.79 369.10 594.58 366.62 C 592.60 370.78 590.13 375.05 591.07 379.86 C 594.96 380.97 599.00 381.35 603.02 381.72 C 599.32 382.79 595.17 383.12 591.63 381.37 C 589.66 380.52 589.09 378.17 589.44 376.23 Z" />
<path fill="#b7b7b7" opacity="1.00" d=" M 245.64 368.36 C 245.81 368.35 246.15 368.33 246.33 368.32 C 246.27 372.84 247.26 377.74 244.93 381.89 C 243.25 384.86 241.16 387.57 239.58 390.60 C 242.25 390.17 244.87 389.54 247.50 388.93 C 245.11 391.52 240.59 393.49 237.81 390.38 C 239.89 387.21 242.28 384.23 244.07 380.88 C 246.08 377.04 245.56 372.54 245.64 368.36 Z" />
<path fill="#b7b7b7" opacity="1.00" d=" M 566.89 392.23 C 564.61 387.75 562.64 383.01 562.14 377.97 C 564.64 386.75 569.34 394.56 574.18 402.20 C 570.83 399.65 568.82 395.87 566.89 392.23 Z" />
<path fill="#b7b7b7" opacity="1.00" d=" M 806.77 394.77 C 808.33 396.05 809.82 397.41 811.33 398.78 L 811.44 397.11 C 812.12 398.35 812.71 399.64 813.28 400.94 C 810.94 399.75 808.72 398.34 806.70 396.67 L 806.72 396.26 C 806.73 395.89 806.76 395.14 806.77 394.77 Z" />
<path fill="#b7b7b7" opacity="1.00" d=" M 479.66 420.25 C 478.70 416.52 478.10 412.70 478.27 408.84 C 480.64 417.28 481.95 425.99 484.86 434.29 C 481.56 430.32 480.89 425.07 479.66 420.25 Z" />
<path fill="#b7b7b7" opacity="1.00" d=" M 297.89 441.15 C 301.98 439.08 304.64 435.21 308.04 432.27 C 305.09 436.89 299.46 439.57 297.92 445.06 C 301.63 446.88 306.42 447.53 308.54 451.51 C 305.19 450.18 302.07 448.09 298.38 447.85 C 298.21 449.92 298.05 452.01 297.91 454.10 C 306.54 453.09 315.22 452.42 323.92 452.29 C 327.06 452.19 330.19 452.63 333.20 453.52 C 321.76 453.85 310.30 453.80 298.92 455.23 C 293.94 455.45 288.89 457.71 283.99 455.81 C 284.18 454.55 284.37 453.31 284.58 452.06 C 283.27 452.03 281.96 452.00 280.66 451.97 C 281.25 450.19 281.86 448.34 283.26 447.02 C 287.56 442.68 292.55 438.74 298.51 437.04 C 298.36 438.07 298.05 440.12 297.89 441.15 M 281.73 451.08 C 287.15 450.38 291.57 446.76 295.93 443.76 C 296.10 442.01 295.98 440.25 295.96 438.52 C 290.52 441.75 284.87 445.41 281.73 451.08 M 295.39 446.89 C 295.96 450.16 298.12 445.01 295.39 446.89 M 285.80 455.02 C 290.07 455.77 293.66 453.28 295.76 449.76 C 293.24 450.24 290.20 452.98 288.05 450.30 C 286.63 451.53 285.80 453.12 285.80 455.02 M 295.52 452.34 C 294.48 452.43 292.98 453.59 293.56 454.74 C 294.87 455.71 297.61 452.89 295.52 452.34 Z" />
<path fill="#b7b7b7" opacity="1.00" d=" M 182.70 445.50 C 185.85 443.58 189.82 444.46 192.50 446.79 C 189.23 446.38 185.96 445.97 182.70 445.50 Z" />
<path fill="#b7b7b7" opacity="1.00" d=" M 261.02 459.88 C 262.48 456.70 263.21 452.94 266.07 450.64 C 265.05 454.27 263.80 457.89 261.74 461.07 C 258.78 461.53 257.99 457.83 256.93 455.77 C 258.33 457.10 259.68 458.48 261.02 459.88 Z" />
<path fill="#b7b7b7" opacity="1.00" d=" M 482.96 461.86 C 484.90 461.78 486.43 460.33 488.11 459.50 C 485.53 465.03 478.84 462.84 474.77 460.40 C 477.51 460.78 480.19 461.59 482.96 461.86 Z" />
<path fill="#b7b7b7" opacity="1.00" d=" M 170.74 468.74 C 172.13 467.06 174.08 466.04 176.22 465.69 C 172.98 468.59 169.62 471.42 167.14 475.04 C 163.67 479.42 161.35 484.56 158.07 489.08 C 160.88 481.56 165.33 474.66 170.74 468.74 Z" />
<path fill="#b7b7b7" opacity="1.00" d=" M 322.49 511.81 C 322.21 508.87 324.80 507.02 326.98 505.62 C 325.98 507.10 324.86 508.51 324.01 510.09 C 323.23 512.56 325.11 514.79 325.89 517.03 C 324.37 515.60 322.39 514.14 322.49 511.81 Z" />
<path fill="#b7b7b7" opacity="1.00" d=" M 136.93 507.58 C 139.99 511.43 141.30 516.97 139.33 521.59 C 138.76 516.88 137.82 512.24 136.93 507.58 Z" />
<path fill="#b7b7b7" opacity="1.00" d=" M 421.86 514.69 C 422.98 518.24 422.07 522.12 423.33 525.62 C 424.89 527.93 427.39 529.37 429.37 531.28 C 425.70 530.89 422.33 528.18 421.52 524.54 C 421.02 521.27 421.38 517.94 421.86 514.69 Z" />
<path fill="#b7b7b7" opacity="1.00" d=" M 668.54 523.40 C 673.78 523.73 679.02 524.18 684.25 523.36 C 679.82 526.76 673.33 525.37 668.54 523.40 Z" />
</g>
<g id="#ddddddff">
<path fill="#dddddd" opacity="1.00" d=" M 159.96 165.79 C 163.59 170.13 166.03 175.32 169.91 179.48 C 170.09 178.82 170.46 177.50 170.64 176.84 C 176.44 183.36 180.47 191.27 182.99 199.59 C 183.08 193.74 179.92 188.61 179.08 182.93 C 184.55 191.52 186.95 202.54 184.36 212.47 C 183.80 208.91 183.77 205.29 184.01 201.70 C 183.21 202.45 182.44 203.23 181.61 203.93 C 179.69 196.31 175.55 189.52 170.63 183.49 C 166.75 177.82 162.00 172.48 159.96 165.79 Z" />
<path fill="#dddddd" opacity="1.00" d=" M 611.27 272.63 C 610.15 268.61 608.23 264.86 607.11 260.84 C 608.34 262.27 609.53 263.74 610.70 265.23 C 610.89 264.60 611.27 263.35 611.46 262.72 C 612.36 264.70 614.31 266.66 613.81 268.96 C 611.51 269.72 614.19 272.05 614.44 269.57 C 614.90 271.38 616.09 273.20 615.66 275.12 C 615.37 276.37 615.11 277.63 614.88 278.89 L 613.79 278.95 C 613.62 276.63 613.30 274.33 613.04 272.03 C 612.70 272.14 612.01 272.38 611.67 272.49 L 611.27 272.63 Z" />
<path fill="#dddddd" opacity="1.00" d=" M 604.15 268.07 C 600.85 267.47 605.64 265.08 604.15 268.07 Z" />
<path fill="#dddddd" opacity="1.00" d=" M 604.15 268.07 L 604.93 268.27 C 604.93 268.66 604.94 269.45 604.95 269.85 L 604.16 269.65 C 604.16 269.26 604.15 268.47 604.15 268.07 Z" />
<path fill="#dddddd" opacity="1.00" d=" M 604.95 269.85 C 608.21 270.37 603.48 272.88 604.95 269.85 Z" />
<path fill="#dddddd" opacity="1.00" d=" M 633.31 284.03 C 634.65 288.42 636.56 292.82 636.38 297.51 C 636.35 298.33 636.33 299.15 636.30 299.97 L 635.06 301.34 C 634.82 300.11 634.58 298.89 634.34 297.67 C 634.34 298.19 634.33 299.24 634.33 299.76 L 633.24 299.80 C 632.92 294.54 632.99 289.28 633.31 284.03 Z" />
<path fill="#dddddd" opacity="1.00" d=" M 731.52 311.10 C 736.70 311.96 741.95 312.11 747.19 312.13 C 742.70 312.35 738.26 313.77 733.79 313.57 C 732.13 313.21 730.49 312.82 728.83 312.54 C 729.51 312.18 730.85 311.46 731.52 311.10 Z" />
<path fill="#dddddd" opacity="1.00" d=" M 759.21 310.66 L 759.34 310.65 C 760.59 311.30 761.83 311.99 763.05 312.74 C 762.22 313.02 761.42 313.35 760.59 313.56 C 759.39 313.33 758.20 313.08 757.02 312.82 C 757.73 312.09 758.46 311.37 759.21 310.66 Z" />
<path fill="#dddddd" opacity="1.00" d=" M 664.69 324.21 C 663.56 321.74 660.97 318.69 663.59 316.20 C 664.91 319.03 666.21 321.88 667.60 324.69 C 666.87 324.57 665.42 324.33 664.69 324.21 Z" />
<path fill="#dddddd" opacity="1.00" d=" M 641.97 325.19 C 642.34 324.98 643.09 324.58 643.46 324.38 C 644.81 327.00 646.49 329.46 647.65 332.18 C 647.35 332.64 646.73 333.56 646.43 334.02 C 644.82 331.13 643.26 328.22 641.97 325.19 Z" />
<path fill="#dddddd" opacity="1.00" d=" M 654.33 329.51 L 655.35 328.62 C 656.06 330.42 656.73 332.23 657.52 334.01 C 655.90 333.05 654.45 331.87 653.14 330.54 C 653.44 330.28 654.03 329.77 654.33 329.51 Z" />
<path fill="#dddddd" opacity="1.00" d=" M 646.43 334.02 C 647.71 334.13 648.64 334.97 649.30 336.00 C 649.60 338.07 650.07 340.12 650.87 342.06 C 649.84 340.87 648.51 339.84 647.96 338.32 C 647.42 336.89 646.95 335.44 646.43 334.02 Z" />
</g>
</svg>
